<svg width="160" height="82" viewBox="0 0 160 82" fill="none" xmlns="http://www.w3.org/2000/svg">
<path d="M137.025 11.2054L136.293 47.198L134.71 47.1658L135.394 13.4767L117.708 47.4924L101.522 12.3562L100.829 46.4772L99.2451 46.445L99.9766 10.4524L102.232 10.4983L117.774 44.229L134.817 11.1605L137.025 11.2054ZM144.596 11.3593L157.505 11.6216L157.477 13.0134L146.151 12.7832L145.753 32.3631L155.207 32.5553L155.179 33.947L145.725 33.7548L145.476 45.9923L156.802 46.2225L156.774 47.6142L143.864 47.3518L144.596 11.3593Z" fill="black"/>
<g filter="url(#filter0_d)">
<path d="M8.45728 76.0594C15.9218 62.1599 28.94 49.8167 42.3597 41.8128C57.1082 33.0164 70.03 31.9174 86.6738 31.9174" stroke="white" stroke-width="3" stroke-linecap="round" stroke-linejoin="round"/>
<path d="M8.58533 76.488C16.1439 76.488 21.9995 72.2245 27.0747 67" stroke="white" stroke-width="3" stroke-linecap="round" stroke-linejoin="round"/>
<path d="M8 76C5.40294 71.9175 2.72655 65.5999 4.66078 61" stroke="white" stroke-width="3" stroke-linecap="round" stroke-linejoin="round"/>
</g>
<defs>
<filter id="filter0_d" x="0.499969" y="30.4174" width="89.6738" height="51.5706" filterUnits="userSpaceOnUse" color-interpolation-filters="sRGB">
<feFlood flood-opacity="0" result="BackgroundImageFix"/>
<feColorMatrix in="SourceAlpha" type="matrix" values="0 0 0 0 0 0 0 0 0 0 0 0 0 0 0 0 0 0 127 0"/>
<feOffset dy="2"/>
<feGaussianBlur stdDeviation="1"/>
<feColorMatrix type="matrix" values="0 0 0 0 0 0 0 0 0 0 0 0 0 0 0 0 0 0 1 0"/>
<feBlend mode="normal" in2="BackgroundImageFix" result="effect1_dropShadow"/>
<feBlend mode="normal" in="SourceGraphic" in2="effect1_dropShadow" result="shape"/>
</filter>
</defs>
</svg>
